<svg width="84" height="28" viewBox="0 0 84 28" fill="none" xmlns="http://www.w3.org/2000/svg">
<g clip-path="url(#clip0_605_14834)">
<path d="M69.1333 27.1823V21.8921C69.1333 21.7674 69.1922 21.6502 69.2919 21.5764L83.3027 11.1894C83.5598 10.9987 83.9237 11.1836 83.9237 11.5051V16.7368C83.9237 16.861 83.8645 16.9779 83.7655 17.0519L69.7549 27.4975C69.4977 27.6891 69.1333 27.5044 69.1333 27.1823Z" fill="#FCFDFF" fill-opacity="0.937255"/>
<path d="M69.1169 6.45468V0.832354C69.1169 0.500706 69.5006 0.318799 69.7546 0.529953L80.9424 9.8274C81.138 9.98983 81.1294 10.2938 80.926 10.4454L77.0372 13.3348C76.8887 13.445 76.6838 13.4355 76.5462 13.3117L69.247 6.74711C69.1642 6.67271 69.1169 6.56635 69.1169 6.45468Z" fill="#FCFDFF" fill-opacity="0.937255"/>
<path d="M14.79 27.1823V21.8921C14.79 21.7674 14.7312 21.6502 14.6314 21.5764L0.620665 11.1894C0.36341 10.9987 0 11.1836 0 11.5051V16.7368C0 16.861 0.0585089 16.9779 0.157713 17.0519L14.1685 27.4975C14.4256 27.6891 14.79 27.5044 14.79 27.1823Z" fill="#FCFDFF" fill-opacity="0.937255"/>
<path d="M14.8065 6.45468V0.832354C14.8065 0.500706 14.4229 0.318799 14.1688 0.529953L2.98104 9.8274C2.78561 9.98983 2.7938 10.2938 2.99769 10.4454L6.88619 13.3348C7.03464 13.445 7.23959 13.4355 7.37718 13.3117L14.6764 6.74711C14.7592 6.67271 14.8065 6.56635 14.8065 6.45468Z" fill="#FCFDFF" fill-opacity="0.937255"/>
<path d="M24.4153 0.784668C24.5833 0.784668 24.7194 0.921727 24.7194 1.09081V19.6103C24.7194 19.7794 24.5833 19.9165 24.4153 19.9165H21.811C21.643 19.9165 21.5068 19.7794 21.5068 19.6103V4.39144C21.5068 4.3069 21.4387 4.23841 21.3547 4.2384H18.9547C18.6968 4.2384 18.5559 3.93566 18.721 3.73626L21.0734 0.894809L21.0846 0.882095C21.1419 0.820135 21.2224 0.784676 21.3071 0.784668H24.4153Z" fill="#FCFDFF" fill-opacity="0.937255"/>
<path d="M56.0617 0.964409C61.2065 0.868543 65.4561 4.9853 65.5578 10.1635C65.6595 15.3418 61.5748 19.6244 56.4303 19.7332C51.2767 19.8423 47.0127 15.722 46.9108 10.5346C46.8089 5.34715 50.9078 1.06043 56.0617 0.964409ZM49.2206 11.2525C49.522 13.2558 50.3938 14.9722 52.0421 16.1924C52.9502 16.8646 54.1678 17.4533 55.307 17.5488C55.3018 16.5463 55.2835 15.5398 55.3069 14.5379C54.1731 14.244 53.152 13.5648 52.5493 12.537C52.3107 12.1301 52.1807 11.7074 52.0796 11.2488L49.2206 11.2525ZM60.3661 11.2491C60.1435 12.3809 59.5499 13.2891 58.5888 13.9306C58.1411 14.2293 57.675 14.4052 57.1585 14.5435L57.1586 17.5348C57.9408 17.3811 58.6597 17.1616 59.3699 16.7898C61.0704 15.9011 62.3773 14.428 62.9627 12.5819C63.1012 12.1449 63.1887 11.702 63.2646 11.2506L60.3661 11.2491ZM56.1335 7.75876C54.7173 7.80799 53.6109 9.00697 53.6664 10.4322C53.722 11.8573 54.9184 12.9654 56.3341 12.9027C57.7403 12.8405 58.8322 11.646 58.777 10.2303C58.7218 8.81458 57.5403 7.70988 56.1335 7.75876ZM57.1579 6.10779C58.3036 6.42429 59.2707 7.04393 59.8729 8.10227C60.1044 8.50917 60.2359 8.93192 60.3286 9.38909C61.296 9.38635 62.2646 9.39521 63.2317 9.38148C62.904 7.29981 61.9364 5.64188 60.2304 4.39525C59.2865 3.70552 58.2969 3.31107 57.1586 3.09033L57.1579 6.10779ZM55.2379 3.14126C53.1458 3.59027 51.5302 4.50243 50.3435 6.34814C49.7672 7.24634 49.3957 8.26195 49.2558 9.32188L49.2856 9.37882L49.3775 9.38831L52.1341 9.38878C52.3677 8.26697 52.9716 7.33038 53.9317 6.69856C54.3591 6.41745 54.8215 6.24601 55.3109 6.10948C55.3057 5.70627 55.3508 3.25834 55.275 3.14471L55.2379 3.14126Z" fill="#FCFDFF" fill-opacity="0.937255"/>
<path d="M36.0167 0.976251C41.1615 0.880368 45.4111 4.99707 45.5129 10.1753C45.6145 15.3536 41.5298 19.6362 36.3853 19.745C31.2317 19.8541 26.9678 15.7338 26.8659 10.5464C26.764 5.35899 30.8627 1.07227 36.0167 0.976251ZM42.8493 10.1185C42.7059 6.43969 39.6355 3.56911 35.9797 3.69615C32.2996 3.82404 29.4246 6.93972 29.5689 10.6433C29.7135 14.3467 32.8223 17.2261 36.501 17.0631C40.1553 16.9015 42.9926 13.7976 42.8493 10.1185Z" fill="#FCFDFF" fill-opacity="0.937255"/>
<path d="M18.4936 25.0249C18.454 25.0249 18.4198 25.0123 18.3911 24.9869C18.3658 24.9579 18.3533 24.9235 18.3533 24.8836V23.3567C18.3533 23.3167 18.3658 23.2842 18.3911 23.2588C18.4198 23.2298 18.454 23.2153 18.4936 23.2153H19.2981C19.3341 23.2153 19.3664 23.2298 19.3952 23.2588C19.424 23.2842 19.4384 23.3167 19.4384 23.3567V24.8836C19.4384 24.9235 19.424 24.9579 19.3952 24.9869C19.3664 25.0123 19.3341 25.0249 19.2981 25.0249H18.4936ZM20.031 26.628C19.9914 26.6316 19.9572 26.6189 19.9284 26.59C19.8996 26.5647 19.8852 26.532 19.8852 26.4922V25.9324C19.8852 25.8926 19.8978 25.86 19.923 25.8346C19.9482 25.8093 19.9788 25.7912 20.0148 25.7803L21.2188 25.5195C21.4167 25.476 21.5661 25.4198 21.6669 25.351C21.7712 25.2822 21.8415 25.1934 21.8775 25.0847C21.9135 24.976 21.9315 24.8438 21.9315 24.688V23.3512C21.9315 23.3113 21.944 23.2787 21.9692 23.2534C21.998 23.228 22.0322 23.2153 22.0718 23.2153H22.833C22.8727 23.2153 22.905 23.2298 22.9303 23.2588C22.959 23.2842 22.9734 23.3167 22.9734 23.3567V24.9978C22.9734 25.2477 22.9141 25.4651 22.7952 25.6498C22.6801 25.8346 22.5109 25.9868 22.2878 26.1063C22.0646 26.2223 21.7928 26.3056 21.4725 26.3563L20.031 26.628ZM20.722 26.1879L19.9608 23.4327C19.9536 23.4037 19.9464 23.382 19.9392 23.3675C19.9356 23.353 19.9338 23.3385 19.9338 23.324C19.9338 23.295 19.9446 23.2697 19.9662 23.248C19.9878 23.2262 20.013 23.2153 20.0418 23.2153H20.884C20.9524 23.2153 20.9938 23.2425 21.0082 23.2968L21.6507 26.0629L20.722 26.1879ZM23.6986 26.3183C23.659 26.3183 23.6248 26.3056 23.596 26.2803C23.5709 26.2512 23.5582 26.2168 23.5582 26.177V25.6064C23.5582 25.5665 23.5709 25.5339 23.596 25.5086C23.6248 25.4796 23.659 25.4651 23.6986 25.4651H24.9025L23.3746 23.4055C23.3675 23.3947 23.3602 23.382 23.3531 23.3675C23.3459 23.353 23.3423 23.3385 23.3423 23.324C23.3423 23.2914 23.3531 23.2661 23.3746 23.248C23.3999 23.2262 23.4286 23.2153 23.4611 23.2153H24.2547C24.3123 23.2153 24.3537 23.228 24.3788 23.2534C24.4077 23.2787 24.4275 23.2987 24.4383 23.3131L26.0256 25.476C26.0436 25.4977 26.0598 25.5231 26.0741 25.552C26.0921 25.5774 26.1011 25.6136 26.1011 25.6607V26.177C26.1011 26.2168 26.0867 26.2512 26.058 26.2803C26.0327 26.3056 26.0003 26.3183 25.9607 26.3183H23.6986ZM25.572 25.0195L25.0537 24.3185C25.1581 24.2388 25.2283 24.1392 25.2643 24.0196C25.3003 23.8964 25.3183 23.7642 25.3183 23.6229V23.3675C25.3183 23.3204 25.3309 23.2842 25.3561 23.2588C25.3849 23.2298 25.4191 23.2153 25.4587 23.2153H26.1336C26.1695 23.2153 26.2019 23.2316 26.2307 23.2643C26.2595 23.2932 26.2739 23.3276 26.2739 23.3675V23.8185C26.2739 24.0577 26.2145 24.2822 26.0958 24.4923C25.9769 24.7025 25.8024 24.8782 25.572 25.0195ZM26.8485 26.3183C26.8088 26.3183 26.7747 26.3056 26.7459 26.2803C26.7207 26.2512 26.7081 26.2168 26.7081 26.177V25.6281C26.7081 25.5883 26.7207 25.5556 26.7459 25.5303C26.7747 25.5014 26.8088 25.4869 26.8485 25.4869H28.1388V24.5793C28.1388 24.4054 28.0956 24.275 28.0092 24.188C27.9265 24.0975 27.7969 24.0522 27.6205 24.0522H26.9024C26.8628 24.0522 26.8286 24.0396 26.7999 24.0142C26.7747 23.9852 26.7621 23.9508 26.7621 23.9109V23.3567C26.7621 23.3167 26.7747 23.2842 26.7999 23.2588C26.8286 23.2298 26.8628 23.2153 26.9024 23.2153H27.6475C27.9786 23.2153 28.2611 23.2588 28.4951 23.3458C28.7291 23.4327 28.9091 23.5758 29.035 23.7751C29.161 23.9743 29.2239 24.2424 29.2239 24.5793V25.4869H29.4075C29.4471 25.4869 29.4795 25.5014 29.5047 25.5303C29.5335 25.5556 29.5479 25.5883 29.5479 25.6281V26.177C29.5479 26.2168 29.5335 26.2512 29.5047 26.2803C29.4795 26.3056 29.4471 26.3183 29.4075 26.3183H26.8485ZM31.7288 24.0848L30.0443 24.0902C30.0083 24.0902 29.9759 24.0776 29.9471 24.0522C29.9183 24.0232 29.9039 23.9888 29.9039 23.949V23.3567C29.9039 23.3167 29.9183 23.2842 29.9471 23.2588C29.9759 23.2298 30.0083 23.2153 30.0443 23.2153H31.8908C32.1355 23.2153 32.355 23.2607 32.5494 23.3512C32.7473 23.4382 32.9021 23.5794 33.0137 23.7751C33.1289 23.9707 33.1864 24.2261 33.1864 24.5413V26.177C33.1864 26.2168 33.1721 26.2512 33.1433 26.2803C33.1181 26.3056 33.0857 26.3183 33.0461 26.3183H31.5506C31.511 26.3183 31.4768 26.3056 31.448 26.2803C31.4228 26.2512 31.4102 26.2168 31.4102 26.177V25.6281C31.4102 25.5883 31.4228 25.5556 31.448 25.5303C31.4768 25.5014 31.511 25.4869 31.5506 25.4869H32.1445V24.5902C32.1445 24.4779 32.1265 24.3855 32.0905 24.3131C32.0545 24.237 32.0059 24.1808 31.9447 24.1446C31.8835 24.1047 31.8115 24.0848 31.7288 24.0848ZM30.0065 26.3183C29.9669 26.3183 29.9309 26.3056 29.8985 26.2803C29.8697 26.2512 29.8607 26.2168 29.8716 26.177L30.487 23.862C30.4978 23.8222 30.514 23.7895 30.5356 23.7642C30.5608 23.7352 30.5914 23.7207 30.6274 23.7207L31.2644 23.7262C31.304 23.7262 31.3382 23.7443 31.367 23.7805C31.3995 23.8167 31.412 23.853 31.4048 23.8892L30.8811 26.177C30.8811 26.2168 30.8667 26.2512 30.8379 26.2803C30.8091 26.3056 30.7768 26.3183 30.7408 26.3183H30.0065ZM35.8332 26.3183C35.7936 26.3183 35.7594 26.3056 35.7307 26.2803C35.7055 26.2549 35.6929 26.2223 35.6929 26.1824V24.5739C35.6929 24.4 35.6497 24.2696 35.5633 24.1826C35.4805 24.092 35.351 24.0468 35.1745 24.0468H33.8789C33.8393 24.0468 33.8051 24.0341 33.7762 24.0087C33.7511 23.9797 33.7384 23.9454 33.7384 23.9054V23.3567C33.7384 23.3167 33.7511 23.2842 33.7762 23.2588C33.8051 23.2298 33.8393 23.2153 33.8789 23.2153H35.2016C35.6947 23.2153 36.0726 23.3222 36.3353 23.536C36.6017 23.7497 36.7349 24.0993 36.7349 24.5847V26.177C36.7349 26.2168 36.7204 26.2512 36.6917 26.2803C36.6665 26.3056 36.6341 26.3183 36.5945 26.3183H35.8332ZM33.8789 26.3183C33.8393 26.3183 33.8051 26.3056 33.7762 26.2803C33.7511 26.2512 33.7384 26.2168 33.7384 26.177V24.6608C33.7384 24.621 33.7511 24.5883 33.7762 24.563C33.8051 24.5341 33.8393 24.5196 33.8789 24.5196H34.6401C34.6761 24.5196 34.7085 24.5341 34.7372 24.563C34.7661 24.5883 34.7805 24.621 34.7805 24.6608V26.177C34.7805 26.2168 34.7661 26.2512 34.7372 26.2803C34.7085 26.3056 34.6761 26.3183 34.6401 26.3183H33.8789ZM40.4571 26.3183C40.4175 26.3183 40.3833 26.3056 40.3546 26.2803C40.3293 26.2549 40.3168 26.2223 40.3168 26.1824V24.5739C40.3168 24.4 40.2735 24.2696 40.1872 24.1826C40.1044 24.092 39.9749 24.0468 39.7984 24.0468H38.5028C38.4631 24.0468 38.429 24.0341 38.4001 24.0087C38.375 23.9797 38.3623 23.9454 38.3623 23.9054V23.3567C38.3623 23.3167 38.375 23.2842 38.4001 23.2588C38.429 23.2298 38.4631 23.2153 38.5028 23.2153H39.8255C40.3186 23.2153 40.6965 23.3222 40.9592 23.536C41.2256 23.7497 41.3588 24.0993 41.3588 24.5847V26.177C41.3588 26.2168 41.3443 26.2512 41.3156 26.2803C41.2903 26.3056 41.258 26.3183 41.2184 26.3183H40.4571ZM38.5028 26.3183C38.4631 26.3183 38.429 26.3056 38.4001 26.2803C38.375 26.2512 38.3623 26.2168 38.3623 26.177V24.6608C38.3623 24.621 38.375 24.5883 38.4001 24.563C38.429 24.5341 38.4631 24.5196 38.5028 24.5196H39.264C39.3 24.5196 39.3324 24.5341 39.3611 24.563C39.39 24.5883 39.4043 24.621 39.4043 24.6608V26.177C39.4043 26.2168 39.39 26.2512 39.3611 26.2803C39.3324 26.3056 39.3 26.3183 39.264 26.3183H38.5028ZM41.9485 26.3183C41.9089 26.3183 41.8747 26.3056 41.8458 26.2803C41.8207 26.2512 41.8081 26.2168 41.8081 26.177V25.6281C41.8081 25.5883 41.8207 25.5556 41.8458 25.5303C41.8747 25.5014 41.9089 25.4869 41.9485 25.4869H43.7733V26.1824C43.7733 26.2223 43.7589 26.2549 43.7301 26.2803C43.7049 26.3056 43.6725 26.3183 43.6329 26.3183H41.9485ZM42.9689 26.3183C42.9293 26.3183 42.8951 26.3056 42.8663 26.2803C42.8411 26.2512 42.8285 26.2168 42.8285 26.177L42.7637 24.5087C42.7565 24.3891 42.7385 24.2931 42.7097 24.2207C42.6845 24.1446 42.6413 24.0884 42.5801 24.0522C42.5225 24.0123 42.4416 23.9924 42.3372 23.9924H42.0456C42.0061 23.9924 41.9718 23.9797 41.9431 23.9544C41.9178 23.9254 41.9053 23.891 41.9053 23.8512V23.3131C41.9053 23.2733 41.9178 23.2407 41.9431 23.2153C41.9718 23.1864 42.0061 23.1719 42.0456 23.1719H42.3588C42.6071 23.1719 42.8231 23.1972 43.0066 23.248C43.1902 23.2987 43.3432 23.3784 43.4655 23.487C43.5879 23.5921 43.6797 23.7316 43.7409 23.9054C43.8021 24.0794 43.8363 24.2877 43.8435 24.5304L43.9137 26.177C43.9137 26.2168 43.8992 26.2512 43.8705 26.2803C43.8417 26.3056 43.8075 26.3183 43.7679 26.3183H42.9689ZM44.4648 26.3183C44.4252 26.3183 44.391 26.3056 44.3622 26.2803C44.337 26.2512 44.3244 26.2168 44.3244 26.177V25.5847C44.3244 25.5448 44.337 25.5122 44.3622 25.4869C44.391 25.4578 44.4252 25.4434 44.4648 25.4434H45.2531C45.4294 25.4434 45.5644 25.3981 45.6579 25.3075C45.7551 25.217 45.8073 25.0865 45.8145 24.9163C45.8181 24.8583 45.8199 24.8094 45.8199 24.7695C45.8199 24.7261 45.8181 24.6753 45.8145 24.6174C45.8073 24.4435 45.7551 24.3131 45.6579 24.2261C45.5644 24.1356 45.4294 24.0902 45.2531 24.0902H44.4648C44.4252 24.0902 44.391 24.0776 44.3622 24.0522C44.337 24.0232 44.3244 23.9888 44.3244 23.949V23.3567C44.3244 23.3167 44.337 23.2842 44.3622 23.2588C44.391 23.2298 44.4252 23.2153 44.4648 23.2153H45.28C45.6399 23.2153 45.9297 23.2751 46.1492 23.3947C46.3688 23.5106 46.5308 23.6754 46.6352 23.8892C46.7395 24.0993 46.799 24.3439 46.8133 24.6228C46.8169 24.6844 46.8188 24.7333 46.8188 24.7695C46.8188 24.8022 46.8169 24.8492 46.8133 24.9108C46.799 25.1898 46.7395 25.4361 46.6352 25.6498C46.5308 25.86 46.3688 26.0248 46.1492 26.1443C45.9297 26.2603 45.6399 26.3183 45.28 26.3183H44.4648ZM47.4342 26.3183C47.3946 26.3183 47.3604 26.3056 47.3316 26.2803C47.3064 26.2512 47.2938 26.2168 47.2938 26.177V23.3567C47.2938 23.3167 47.3064 23.2842 47.3316 23.2588C47.3604 23.2298 47.3946 23.2153 47.4342 23.2153H48.2386C48.2746 23.2153 48.307 23.2298 48.3357 23.2588C48.3646 23.2842 48.379 23.3167 48.379 23.3567V26.177C48.379 26.2168 48.3646 26.2512 48.3357 26.2803C48.307 26.3056 48.2746 26.3183 48.2386 26.3183H47.4342ZM49.2136 24.0468C49.174 24.0468 49.1398 24.0341 49.1111 24.0087C49.0858 23.9797 49.0733 23.9454 49.0733 23.9054V23.3567C49.0733 23.3167 49.0858 23.2842 49.1111 23.2588C49.1398 23.2298 49.174 23.2153 49.2136 23.2153H50.8225C51.1536 23.2153 51.4326 23.2607 51.6593 23.3512C51.8861 23.4418 52.0571 23.5849 52.1722 23.7805C52.291 23.9725 52.3504 24.2279 52.3504 24.5467V26.177C52.3504 26.2168 52.336 26.2512 52.3072 26.2803C52.282 26.3056 52.2496 26.3183 52.21 26.3183H51.4487C51.4128 26.3183 51.3804 26.3056 51.3516 26.2803C51.3228 26.2549 51.3084 26.2223 51.3084 26.1824V24.5739C51.3084 24.4 51.267 24.2696 51.1842 24.1826C51.1014 24.092 50.9718 24.0468 50.7955 24.0468H49.2136ZM49.9641 23.6283H50.2502C50.369 23.6283 50.4481 23.6501 50.4878 23.6935C50.531 23.7371 50.5417 23.7823 50.5201 23.8294C50.4841 23.9272 50.4554 24.0251 50.4338 24.1229C50.4122 24.2171 50.396 24.3167 50.3852 24.4218C50.378 24.5232 50.3744 24.6373 50.3744 24.7641L50.4283 26.177C50.4283 26.2168 50.414 26.2512 50.3852 26.2803C50.3564 26.3056 50.3222 26.3183 50.2826 26.3183H49.0193C48.9797 26.3183 48.9455 26.3038 48.9166 26.2748C48.8915 26.2458 48.8789 26.2132 48.8789 26.177V25.6716C48.8789 25.6317 48.8915 25.5992 48.9166 25.5738C48.9455 25.5448 48.9797 25.5303 49.0193 25.5303H49.4619V24.7695C49.4619 24.6644 49.4655 24.5612 49.4728 24.4598C49.4835 24.3583 49.4997 24.2551 49.5213 24.15C49.5429 24.045 49.5735 23.9381 49.6131 23.8294C49.6347 23.7751 49.6689 23.728 49.7157 23.6881C49.7661 23.6483 49.8489 23.6283 49.9641 23.6283ZM54.9984 26.3183C54.9588 26.3183 54.9246 26.3056 54.8958 26.2803C54.8706 26.2549 54.8581 26.2223 54.8581 26.1824V24.5739C54.8581 24.4 54.8148 24.2696 54.7285 24.1826C54.6456 24.092 54.516 24.0468 54.3397 24.0468H53.0439C53.0044 24.0468 52.9702 24.0341 52.9414 24.0087C52.9162 23.9797 52.9036 23.9454 52.9036 23.9054V23.3567C52.9036 23.3167 52.9162 23.2842 52.9414 23.2588C52.9702 23.2298 53.0044 23.2153 53.0439 23.2153H54.3667C54.8598 23.2153 55.2378 23.3222 55.5005 23.536C55.7669 23.7497 55.9 24.0993 55.9 24.5847V26.177C55.9 26.2168 55.8856 26.2512 55.8569 26.2803C55.8316 26.3056 55.7992 26.3183 55.7596 26.3183H54.9984ZM53.0439 26.3183C53.0044 26.3183 52.9702 26.3056 52.9414 26.2803C52.9162 26.2512 52.9036 26.2168 52.9036 26.177V24.6608C52.9036 24.621 52.9162 24.5883 52.9414 24.563C52.9702 24.5341 53.0044 24.5196 53.0439 24.5196H53.8052C53.8412 24.5196 53.8736 24.5341 53.9024 24.563C53.9312 24.5883 53.9456 24.621 53.9456 24.6608V26.177C53.9456 26.2168 53.9312 26.2512 53.9024 26.2803C53.8736 26.3056 53.8412 26.3183 53.8052 26.3183H53.0439ZM57.7812 24.0468C57.7416 24.0468 57.7074 24.0341 57.6787 24.0087C57.6535 23.9797 57.6409 23.9454 57.6409 23.9054V23.3567C57.6409 23.3167 57.6535 23.2842 57.6787 23.2588C57.7074 23.2298 57.7416 23.2153 57.7812 23.2153H59.3902C59.7212 23.2153 60.0002 23.2607 60.227 23.3512C60.4537 23.4418 60.6247 23.5849 60.7398 23.7805C60.8586 23.9725 60.918 24.2279 60.918 24.5467V26.177C60.918 26.2168 60.9036 26.2512 60.8748 26.2803C60.8496 26.3056 60.8172 26.3183 60.7776 26.3183H60.0164C59.9804 26.3183 59.948 26.3056 59.9192 26.2803C59.8904 26.2549 59.876 26.2223 59.876 26.1824V24.5739C59.876 24.4 59.8346 24.2696 59.7519 24.1826C59.669 24.092 59.5395 24.0468 59.3631 24.0468H57.7812ZM58.5317 23.6283H58.8178C58.9366 23.6283 59.0158 23.6501 59.0554 23.6935C59.0986 23.7371 59.1094 23.7823 59.0878 23.8294C59.0518 23.9272 59.023 24.0251 59.0014 24.1229C58.9798 24.2171 58.9636 24.3167 58.9528 24.4218C58.9456 24.5232 58.942 24.6373 58.942 24.7641L58.996 26.177C58.996 26.2168 58.9816 26.2512 58.9528 26.2803C58.924 26.3056 58.8898 26.3183 58.8502 26.3183H57.5869C57.5473 26.3183 57.5131 26.3038 57.4843 26.2748C57.4591 26.2458 57.4465 26.2132 57.4465 26.177V25.6716C57.4465 25.6317 57.4591 25.5992 57.4843 25.5738C57.5131 25.5448 57.5473 25.5303 57.5869 25.5303H58.0296V24.7695C58.0296 24.6644 58.0332 24.5612 58.0404 24.4598C58.0512 24.3583 58.0673 24.2551 58.089 24.15C58.1106 24.045 58.1411 23.9381 58.1807 23.8294C58.2024 23.7751 58.2365 23.728 58.2833 23.6881C58.3338 23.6483 58.4165 23.6283 58.5317 23.6283ZM61.5954 25.0249C61.5558 25.0249 61.5216 25.0123 61.4928 24.9869C61.4676 24.9579 61.455 24.9235 61.455 24.8836V23.3567C61.455 23.3167 61.4676 23.2842 61.4928 23.2588C61.5216 23.2298 61.5558 23.2153 61.5954 23.2153H62.3999C62.4358 23.2153 62.4682 23.2298 62.4971 23.2588C62.5258 23.2842 62.5402 23.3167 62.5402 23.3567V24.8836C62.5402 24.9235 62.5258 24.9579 62.4971 24.9869C62.4682 25.0123 62.4358 25.0249 62.3999 25.0249H61.5954ZM63.1436 26.3183C63.104 26.3183 63.0698 26.3056 63.041 26.2803C63.0158 26.2512 63.0032 26.2168 63.0032 26.177V25.6281C63.0032 25.5883 63.0158 25.5556 63.041 25.5303C63.0698 25.5014 63.104 25.4869 63.1436 25.4869H64.434V24.5793C64.434 24.4054 64.3907 24.275 64.3044 24.188C64.2216 24.0975 64.092 24.0522 63.9156 24.0522H63.1976C63.158 24.0522 63.1238 24.0396 63.095 24.0142C63.0698 23.9852 63.0572 23.9508 63.0572 23.9109V23.3567C63.0572 23.3167 63.0698 23.2842 63.095 23.2588C63.1238 23.2298 63.158 23.2153 63.1976 23.2153H63.9427C64.2738 23.2153 64.5563 23.2588 64.7903 23.3458C65.0242 23.4327 65.2042 23.5758 65.3302 23.7751C65.4562 23.9743 65.5191 24.2424 65.5191 24.5793V25.4869H65.7027C65.7423 25.4869 65.7747 25.5014 65.7999 25.5303C65.8287 25.5556 65.843 25.5883 65.843 25.6281V26.177C65.843 26.2168 65.8287 26.2512 65.7999 26.2803C65.7747 26.3056 65.7423 26.3183 65.7027 26.3183H63.1436Z" fill="#FCFDFF" fill-opacity="0.937255"/>
</g>
<defs>
<clipPath id="clip0_605_14834">
<rect width="84" height="28" fill="white"/>
</clipPath>
</defs>
</svg>
