<svg width="28" height="28" viewBox="0 0 28 28" fill="none" xmlns="http://www.w3.org/2000/svg">
<path d="M4.63499 9.30955C4.91722 9.38844 10.437 15.1116 11.1499 15.7903C12.2968 16.8821 13.5116 17.7579 15.3184 16.9736C16.2799 16.5563 17.7832 14.8299 18.5558 14.0552L23.3118 9.28479C24.8508 10.7196 26.4677 12.4603 28 13.9563L22.6057 19.3565C22.2799 19.6574 21.8848 20.0599 21.5801 20.3859C19.1752 22.9591 16.3565 25.3863 14.0182 28C10.1618 24.2452 6.43561 20.3131 2.58574 16.5472C1.72911 15.7093 0.892415 14.7685 0 13.9788C1.53532 12.4128 3.08038 10.8563 4.63499 9.30955Z" fill="#94A3B8"/>
<path d="M13.9492 0C14.2921 0.0827935 21.4375 7.41143 22.3847 8.32959C22.0838 8.71017 21.3591 9.40701 21.0016 9.76041L18.9125 11.8508C18.3981 12.359 17.7154 12.9947 17.2694 13.5297C16.894 11.9552 15.9332 10.7995 14.2361 10.6967C12.3891 10.6657 11.0672 11.6768 10.7438 13.5254C9.15421 11.8293 7.25734 10.0259 5.59937 8.35633C8.25543 5.62063 11.2162 2.65682 13.9492 0Z" fill="#94A3B8"/>
</svg>
