<svg width="60" height="16" viewBox="0 0 60 16" fill="none" xmlns="http://www.w3.org/2000/svg">
<path d="M3.16113 15.8669C2.84763 15.8669 2.57767 15.7604 2.35125 15.5474C2.14225 15.3167 2.03775 15.0416 2.03775 14.7221V3.40765H0.548626C0.391875 3.40765 0.26125 3.35441 0.15675 3.24792C0.0522501 3.14143 0 3.00832 0 2.84859V0.825292C0 0.665558 0.0522501 0.532446 0.15675 0.425956C0.26125 0.319467 0.391875 0.266223 0.548626 0.266223H12.4094C12.7229 0.266223 12.9841 0.381586 13.1931 0.612313C13.4196 0.825291 13.5328 1.09151 13.5328 1.41098V14.7221C13.5328 15.0416 13.4196 15.3167 13.1931 15.5474C12.9841 15.7604 12.7229 15.8669 12.4094 15.8669H3.16113ZM5.17275 12.7255H10.3978V3.40765H5.17275V12.7255Z" fill="#FFE7B3"/>
<path d="M19.8471 9.77038C19.6903 9.77038 19.5597 9.71714 19.4552 9.61065C19.3507 9.50416 19.2984 9.37105 19.2984 9.21132V3.40765H17.3129C17.1562 3.40765 17.0256 3.35441 16.9211 3.24792C16.8166 3.14143 16.7643 3.00832 16.7643 2.84859V0.825292C16.7643 0.665558 16.8166 0.532446 16.9211 0.425956C17.0256 0.319467 17.1562 0.266223 17.3129 0.266223H21.3101C21.6236 0.266223 21.8848 0.381586 22.0938 0.612313C22.3202 0.825291 22.4334 1.09151 22.4334 1.41098V9.21132C22.4334 9.37105 22.3812 9.50416 22.2767 9.61065C22.1722 9.71714 22.0416 9.77038 21.8848 9.77038H19.8471Z" fill="#FFE7B3"/>
<path d="M25.4715 15.8669C25.3147 15.8669 25.1841 15.8136 25.0796 15.7072C24.9751 15.6007 24.9229 15.4676 24.9229 15.3078V13.2845C24.9229 13.1248 24.9751 12.9917 25.0796 12.8852C25.1841 12.7787 25.3147 12.7255 25.4715 12.7255H28.0056C28.232 12.7255 28.4236 12.6456 28.5804 12.4859C28.7371 12.3261 28.8155 12.1309 28.8155 11.9002V3.40765H26.2552C26.0985 3.40765 25.9679 3.35441 25.8634 3.24792C25.7589 3.14143 25.7066 3.00832 25.7066 2.84859V0.825292C25.7066 0.665558 25.7589 0.532446 25.8634 0.425956C25.9679 0.319467 26.0985 0.266223 26.2552 0.266223H30.8271C31.1406 0.266223 31.4019 0.381586 31.6109 0.612313C31.8373 0.825291 31.9505 1.09151 31.9505 1.41098V12.0333C31.9505 12.7432 31.7763 13.391 31.428 13.9767C31.0971 14.5446 30.6442 15.0061 30.0695 15.3611C29.5122 15.6983 28.8852 15.8669 28.1885 15.8669H25.4715Z" fill="#FFE7B3"/>
<path d="M34.9536 16C34.8143 16 34.6924 15.9468 34.5879 15.8403C34.4834 15.7338 34.4311 15.6007 34.4311 15.4409V13.4443C34.4311 13.2845 34.4834 13.1514 34.5879 13.0449C34.6924 12.9384 34.823 12.8852 34.9798 12.8852H35.2671C35.5806 12.8852 35.8767 12.8319 36.1554 12.7255C36.4341 12.619 36.7911 12.4237 37.2265 12.1398C37.6619 11.838 38.2541 11.4298 39.003 10.9151L39.839 10.3295V3.38103H36.4689C36.3121 3.38103 36.1815 3.32779 36.077 3.2213C35.9725 3.11481 35.9203 2.9817 35.9203 2.82196V0.825292C35.9203 0.665558 35.9725 0.532446 36.077 0.425956C36.1815 0.319467 36.3121 0.266223 36.4689 0.266223H41.8507C42.1642 0.266223 42.4254 0.381586 42.6344 0.612313C42.8608 0.825291 42.974 1.09151 42.974 1.41098V15.3078C42.974 15.4676 42.9218 15.6007 42.8173 15.7072C42.7128 15.8136 42.5822 15.8669 42.4254 15.8669H40.4922C40.3354 15.8669 40.2048 15.8136 40.1003 15.7072C39.9958 15.6007 39.9435 15.4676 39.9435 15.3078V13.817H39.839L39.2643 14.2163C38.3934 14.8197 37.6707 15.2723 37.0959 15.574C36.5386 15.858 35.9116 16 35.2149 16H34.9536Z" fill="#FFE7B3"/>
<path d="M48.4266 15.8669C48.2699 15.8669 48.1392 15.8136 48.0347 15.7072C47.9302 15.6007 47.878 15.4676 47.878 15.3078V3.32779H46.6762C46.5543 3.32779 46.4411 3.28342 46.3366 3.19468C46.2495 3.08819 46.206 2.97282 46.206 2.84859V0.745424C46.206 0.603438 46.2495 0.488075 46.3366 0.399334C46.4411 0.310593 46.5543 0.266223 46.6762 0.266223H50.0986C50.3076 0.266223 50.4818 0.34609 50.6211 0.505823C50.7779 0.647809 50.8562 0.825291 50.8562 1.03827V1.9168C51.2917 1.33111 51.8316 0.869661 52.476 0.532445C53.1378 0.177482 53.8432 0 54.5921 0C55.6197 0 56.5341 0.230726 57.3352 0.692179C58.1538 1.15363 58.7982 1.77482 59.2685 2.55574C59.7562 3.33666 60 4.22407 60 5.21797V12.0333C60 12.7255 59.8258 13.3644 59.4775 13.9501C59.1292 14.5358 58.6676 15.0061 58.0929 15.3611C57.5181 15.6983 56.8824 15.8669 56.1857 15.8669H53.6516C53.4949 15.8669 53.3642 15.8136 53.2597 15.7072C53.1552 15.6007 53.103 15.4676 53.103 15.3078V13.2845C53.103 13.1248 53.1552 12.9917 53.2597 12.8852C53.3642 12.7787 53.4949 12.7255 53.6516 12.7255H56.1596C56.3512 12.7255 56.5167 12.6545 56.656 12.5125C56.7953 12.3705 56.865 12.2019 56.865 12.0067V5.72379C56.865 4.92512 56.6212 4.28619 56.1335 3.80699C55.6632 3.31004 55.0362 3.06156 54.2525 3.06156C53.2946 3.06156 52.5108 3.36328 51.9012 3.96672C51.3091 4.57016 51.013 5.36883 51.013 6.36273V15.3078C51.013 15.4676 50.9607 15.6007 50.8562 15.7072C50.7517 15.8136 50.6211 15.8669 50.4644 15.8669H48.4266Z" fill="#FFE7B3"/>
</svg>
