<svg width="43" height="48" viewBox="0 0 43 48" fill="none" xmlns="http://www.w3.org/2000/svg">
<path d="M36.7994 13.6019C32.4859 13.0686 25.1171 7.51333 21.5674 4.80237C17.7931 8.00219 10.2445 12.6686 5.79626 13.6019C6.44329 32.1609 14.8276 37.7339 21.5674 40.4004C34.7235 35.814 36.9342 21.8681 36.7994 13.6019Z" fill="#0348B1"/>
<path d="M40.7084 17.6016C40.304 27.2011 35.9906 36.0007 30.5987 39.8671L29.0796 38.8911C34.9115 33.9601 37.5382 26.7472 38.5625 20.1036L40.7084 17.6016ZM4.30213 19.4096C5.79423 28.8081 9.31989 34.4462 13.3066 38.0417L12.035 39.4208C7.69007 35.5023 2.2915 27.6011 2.2915 17.2017L4.30213 19.4096ZM22.2574 0.463517C25.2114 2.71759 31.6027 7.37199 36.1254 9.73541L33.1598 10.1354C28.7766 7.84487 24.7134 4.68477 21.7061 2.39883C18.4221 5.06836 14.015 7.95232 9.4357 10.1354L5.79621 9.73541C10.6489 8.40215 17.9558 3.12921 21.0671 0.493723L21.6498 0L22.2574 0.463517Z" fill="#4C93FF"/>
<path d="M16.1755 13.2019C16.9843 9.46873 21.9718 8.2688 21.9718 8.2688C21.9718 8.2688 23.9937 12.4019 21.9718 15.0684L23.9937 13.6018C25.2069 15.0684 25.2069 18.2949 25.2069 20.0015C27.2558 19.6815 28.9363 16.935 29.5204 15.6017C29.9517 16.3484 29.7001 17.4239 29.5204 17.8683C32.0006 16.4817 33.6991 12.9352 34.2382 11.3353C37.4734 11.6553 41.4274 9.77983 43 8.8021C42.353 11.8953 38.6865 14.4462 36.9342 15.3351C38.1204 15.3351 40.0345 14.7129 40.8433 14.4018C38.6865 18.5616 34.5528 21.0237 32.7555 21.7347C34.373 22.0547 36.2153 21.6014 36.9342 21.3348C35.6401 25.9212 29.745 27.4233 26.9592 27.6011C27.7141 28.0277 30.419 27.7789 31.6771 27.6011C30.7066 30.4809 27.2288 30.9342 25.6113 30.8009C25.9348 31.3342 27.1839 31.7342 27.768 31.8675C26.7975 32.7208 25.2069 32.8452 24.5329 32.8008C24.9643 34.614 27.6782 35.1562 28.9812 35.2007C28.2263 36.1606 26.4201 36.6673 25.6113 36.8006C26.0426 38.0805 28.0376 39.4671 28.9812 40.0004C26.1774 40.0004 25.0272 39.2893 24.8025 38.9338C25.4495 41.9203 27.5883 43.8224 28.5768 44.4002C25.8809 44.4002 23.7691 42.1781 23.0502 41.067C23.158 44.4802 22.0167 47.1111 21.4326 48C20.1386 46.1867 19.9948 42.6225 20.0846 41.067C18.4671 44.0535 15.7262 44.5335 14.558 44.4002C16.4991 43.8669 17.7032 40.5337 18.0627 38.9338C16.8765 40.0004 14.7827 40.0893 13.884 40.0004C15.3937 39.1471 17.0293 37.5117 17.6583 36.8006C16.1486 36.6939 14.7827 35.6895 14.2884 35.2007C16.8765 35.2007 18.2424 33.6008 18.6019 32.8008C16.9843 32.6941 15.7712 32.1342 15.3668 31.8675C16.0138 31.8675 16.8046 31.1564 17.1191 30.8009C13.3448 30.9076 11.7722 28.7121 11.4577 27.6011C12.6439 28.1344 14.9174 27.8233 15.906 27.6011C8.89655 26.5345 6.42529 22.9791 6.06583 21.3348C7.57555 21.8681 9.57053 21.8236 10.3793 21.7347C6.06583 19.8148 3.19018 16.0462 2.29154 14.4018C3.47774 15.2551 5.12226 15.3795 5.79624 15.3351C2.12978 13.3085 0.404389 9.9576 0 8.53545C1.40188 10.562 6.24556 11.2464 8.49216 11.3353C9.03135 13.6818 11.9519 16.6683 13.3448 17.8683C13.0213 17.1217 13.21 16.0462 13.3448 15.6017C14.4232 18.5882 16.9394 19.7793 18.0627 20.0015C19.815 18.4016 21.0514 16.6103 19.4107 16.0017C18.3323 15.6017 16.535 16.9794 16.1755 17.4683C16.1755 17.4683 15.7236 15.2877 16.1755 13.2019Z" fill="#FFAF03"/>
<path d="M18.0627 38.9338C16.8765 40.0004 14.7827 40.0893 13.884 40.0004C15.3668 39.7782 16.8765 39.2538 18.6019 37.3339C18.6019 39.2004 18.4671 40.0004 18.1975 41.3336C18.7367 41.4225 20.2195 40.6137 20.7586 39.8671C20.1836 44.0002 21.4326 45.6001 21.4326 45.6001C21.4326 45.6001 22.7772 44.5335 23.0502 41.067C23.185 42.5336 22.9154 45.6001 21.4326 48C20.1386 46.1867 19.9948 42.6225 20.0847 41.067C18.4671 44.0535 15.7262 44.5335 14.558 44.4001C16.4991 43.8668 17.7033 40.5337 18.0627 38.9338Z" fill="#8F6202"/>
<path d="M17.1191 30.8009C13.3448 30.9076 11.7722 28.7121 11.4576 27.6011C14.2614 29.9476 18.2873 29.2454 19.9498 29.201C19.9498 30.8009 18.3322 31.6009 18.3322 31.6009C19.6802 32.2675 21.163 31.3342 21.163 31.3342C21.163 31.3342 19.0062 37.4672 14.2884 35.2007C16.8765 35.2007 18.2424 33.6007 18.6018 32.8008C16.9843 32.6941 15.7711 32.1342 15.3667 31.8675C16.0138 31.8675 16.8046 31.1564 17.1191 30.8009Z" fill="#8F6202"/>
<path d="M5.79624 15.3352C2.12978 13.3086 0.404389 9.95767 0 8.53552C0 8.53552 3.36991 12.5353 5.79624 14.0019C8.22257 15.4685 9.97492 16.0018 9.97492 16.0018C9.16614 16.9351 6.06583 17.0684 6.06583 17.0684C7.57555 19.3065 11.907 22.0007 13.884 23.0681C9.13918 24.1347 6.69488 22.357 6.06583 21.3348C7.57555 21.8681 9.57053 21.8237 10.3793 21.7348C6.06583 19.8149 3.19018 16.0462 2.29154 14.4019C3.47774 15.2552 5.12226 15.3796 5.79624 15.3352Z" fill="#8F6202"/>
<path d="M17.9045 14.7168C19.0138 14.9451 20.6367 14.0412 20.3799 11.736C19.0138 11.736 17.477 12.9183 17.9045 14.7168Z" fill="#1C2024"/>
<path d="M24.8025 38.9338C25.4495 41.9203 27.5882 43.8224 28.5768 44.4002C26.9592 43.8669 23.3197 41.7337 23.8589 35.8673C24.8294 39.2805 27.2737 39.4671 28.9811 40.0004C26.1774 40.0004 25.0271 39.2893 24.8025 38.9338Z" fill="#FFE7B3"/>
<path d="M24.5329 32.8008C24.9643 34.614 27.6782 35.1562 28.9812 35.2007C27.3187 35.6895 23.805 35.7073 23.0502 31.8675C23.0502 31.8675 24.5329 32.1342 25.3417 31.7342C25.3417 31.7342 23.3198 31.3342 22.511 28.9343C22.511 28.9343 24.3981 29.601 27.0941 29.3343C29.79 29.0677 31.6771 27.6011 31.6771 27.6011C30.7066 30.4809 27.2289 30.9342 25.6113 30.8009C25.9348 31.3342 27.1839 31.7342 27.768 31.8675C26.7975 32.7208 25.2069 32.8452 24.5329 32.8008Z" fill="#FFE7B3"/>
<path d="M32.7555 21.7348C34.3731 22.0547 36.2153 21.6014 36.9342 21.3348C36.9342 21.3348 33.4295 24.6679 30.0596 21.6014C30.0596 21.6014 36.9342 18.5349 38.0125 16.4017C38.0125 16.4017 35.3166 17.0683 34.1035 15.0685C36.1254 15.2018 41.3825 12.2686 43 8.80212C42.353 11.8953 38.6865 14.4463 36.9342 15.3351C38.1204 15.3351 40.0345 14.7129 40.8433 14.4018C38.6865 18.5616 34.5528 21.0237 32.7555 21.7348Z" fill="#FFE7B3"/>
<ellipse cx="19.2758" cy="12.802" rx="0.404389" ry="0.399978" fill="white"/>
</svg>
