<svg width="16" height="14" viewBox="0 0 16 14" fill="none" xmlns="http://www.w3.org/2000/svg">
<path d="M11.9501 2.05032C10.9711 1.07135 9.72382 0.404596 8.36596 0.1345C7.00814 -0.135578 5.60068 0.00302463 4.32164 0.5328C3.04256 1.06261 1.94915 1.95985 1.17998 3.11098C0.410814 4.26212 -1.16702e-07 5.6156 0 7.00006C1.16702e-07 8.38453 0.410814 9.73801 1.17998 10.8892C1.94915 12.0403 3.04257 12.9375 4.32164 13.4673C5.60068 13.9971 7.00814 14.1357 8.36596 13.8656C9.72382 13.5955 10.9711 12.9288 11.9501 11.9498C12.1844 11.7155 12.1844 11.3356 11.9501 11.1013C11.7158 10.867 11.3359 10.867 11.1016 11.1013C10.2904 11.9124 9.25682 12.4652 8.13173 12.689C7.0067 12.9127 5.84045 12.7976 4.78071 12.3586C3.72099 11.9196 2.81551 11.1761 2.17822 10.2224C1.54091 9.26857 1.19987 8.1472 1.19987 7.00006C1.19987 5.85293 1.54091 4.73156 2.17822 3.77776C2.81551 2.82406 3.72099 2.08049 4.7807 1.64152C5.84045 1.20256 7.0067 1.08743 8.13173 1.31117C9.25656 1.53491 10.29 2.08745 11.101 2.89829C12.2517 4.05816 12.9096 5.61783 12.9373 7.25142V8.0657L12.7495 7.87787C12.5152 7.64358 12.1353 7.64362 11.9009 7.87787C11.6666 8.11219 11.6666 8.49208 11.9009 8.7264L13.113 9.93842C13.3473 10.1727 13.7272 10.1727 13.9615 9.93842L15.1735 8.7264C15.4078 8.49208 15.4078 8.11219 15.1735 7.87787C14.9392 7.64356 14.5593 7.64356 14.325 7.87787L14.1372 8.0657V7.23153C14.1043 5.2878 13.3212 3.43177 11.9518 2.05197L11.9501 2.05032Z" fill="#FCFDFF" fill-opacity="0.937255"/>
<path d="M8.39354 9.25149C8.11194 9.25149 7.85807 9.19175 7.63194 9.07229C7.40581 8.94855 7.21167 8.78002 7.04954 8.56669C6.89167 8.34909 6.77007 8.09522 6.68474 7.80509C6.59941 7.51495 6.55674 7.20135 6.55674 6.86429C6.55674 6.51869 6.59941 6.20082 6.68474 5.91069C6.77007 5.62055 6.89167 5.36669 7.04954 5.14909C7.21167 4.93149 7.40581 4.76295 7.63194 4.64349C7.85807 4.52402 8.11194 4.46429 8.39354 4.46429C8.67514 4.46429 8.92901 4.52402 9.15514 4.64349C9.38127 4.76295 9.57328 4.93149 9.73114 5.14909C9.89328 5.36669 10.017 5.62055 10.1023 5.91069C10.1877 6.20082 10.2303 6.51869 10.2303 6.86429C10.2303 7.20135 10.1877 7.51495 10.1023 7.80509C10.017 8.09522 9.89328 8.34909 9.73114 8.56669C9.57328 8.78002 9.38127 8.94855 9.15514 9.07229C8.92901 9.19175 8.67514 9.25149 8.39354 9.25149ZM8.39354 8.46429C8.60261 8.46429 8.78181 8.39389 8.93114 8.25309C9.08047 8.11229 9.19354 7.92029 9.27034 7.67709C9.35141 7.43389 9.39194 7.16082 9.39194 6.85789C9.39194 6.54642 9.35141 6.27122 9.27034 6.03229C9.19354 5.78909 9.08047 5.59922 8.93114 5.46269C8.78181 5.32189 8.60261 5.25149 8.39354 5.25149C8.18874 5.25149 8.01167 5.32189 7.86234 5.46269C7.71301 5.59922 7.59781 5.78909 7.51674 6.03229C7.43994 6.27122 7.40154 6.54642 7.40154 6.85789C7.40154 7.16082 7.43994 7.43389 7.51674 7.67709C7.59781 7.92029 7.71301 8.11229 7.86234 8.25309C8.01167 8.39389 8.18874 8.46429 8.39354 8.46429Z" fill="white"/>
<path d="M4.47739 9.27709L3.82459 8.82909C3.89712 8.71815 3.97179 8.60295 4.04859 8.48349C4.12539 8.36402 4.20219 8.24455 4.27899 8.12509C4.36006 8.00135 4.43686 7.88189 4.50939 7.76669C4.58619 7.65149 4.65872 7.54055 4.72699 7.43389L4.68859 7.39549C4.64592 7.41255 4.59472 7.42749 4.53499 7.44029C4.47952 7.45309 4.41979 7.45949 4.35579 7.45949C4.13392 7.45949 3.92272 7.39549 3.72219 7.26749C3.52166 7.13949 3.35739 6.96455 3.22939 6.74269C3.10139 6.52082 3.03739 6.27122 3.03739 5.99389C3.03739 5.69949 3.10992 5.43709 3.25499 5.20669C3.40006 4.97629 3.58992 4.79495 3.82459 4.66269C4.05926 4.53042 4.31099 4.46429 4.57979 4.46429C4.83152 4.46429 5.05766 4.51122 5.25819 4.60509C5.46299 4.69469 5.63366 4.81629 5.77019 4.96989C5.89392 5.10642 5.98779 5.26855 6.05179 5.45629C6.12006 5.63975 6.15419 5.82962 6.15419 6.02589C6.15419 6.32029 6.09232 6.59549 5.96859 6.85149C5.84486 7.10749 5.69979 7.36775 5.53339 7.63229C5.42672 7.79869 5.31152 7.97789 5.18779 8.16989C5.06832 8.35762 4.94672 8.54749 4.82299 8.73949C4.69926 8.92722 4.58406 9.10642 4.47739 9.27709ZM4.59899 6.76189C4.72699 6.76189 4.84646 6.72775 4.95739 6.65949C5.06832 6.59122 5.15792 6.49949 5.22619 6.38429C5.29872 6.26482 5.33499 6.13255 5.33499 5.98749C5.33499 5.84242 5.29872 5.71442 5.22619 5.60349C5.15792 5.48829 5.06832 5.39869 4.95739 5.33469C4.84646 5.26642 4.72699 5.23229 4.59899 5.23229C4.47099 5.23229 4.34939 5.26642 4.23419 5.33469C4.12326 5.39869 4.03152 5.48829 3.95899 5.60349C3.89072 5.71442 3.85659 5.84242 3.85659 5.98749C3.85659 6.13255 3.89072 6.26482 3.95899 6.38429C4.03152 6.49949 4.12326 6.59122 4.23419 6.65949C4.34939 6.72775 4.47099 6.76189 4.59899 6.76189Z" fill="white"/>
<path d="M10.6862 5.18749C10.5582 5.18749 10.4446 5.15949 10.3454 5.10349C10.2478 5.04589 10.171 4.96829 10.115 4.87069C10.0606 4.77149 10.0334 4.66029 10.0334 4.53709C10.0334 4.41389 10.0606 4.30349 10.115 4.20589C10.171 4.10669 10.2478 4.02909 10.3454 3.97309C10.4446 3.91549 10.5582 3.88669 10.6862 3.88669C10.8142 3.88669 10.927 3.91549 11.0246 3.97309C11.1222 4.03069 11.1982 4.10829 11.2526 4.20589C11.3086 4.30349 11.3366 4.41389 11.3366 4.53709C11.3366 4.66029 11.3086 4.77149 11.2526 4.87069C11.1982 4.96829 11.1222 5.04589 11.0246 5.10349C10.927 5.15949 10.8142 5.18749 10.6862 5.18749ZM10.6862 4.89469C10.747 4.89469 10.8022 4.88109 10.8518 4.85389C10.903 4.82509 10.9438 4.78429 10.9742 4.73149C11.0062 4.67709 11.0222 4.61229 11.0222 4.53709C11.0222 4.46189 11.0062 4.39789 10.9742 4.34509C10.9438 4.29229 10.903 4.25149 10.8518 4.22269C10.8022 4.19389 10.7478 4.17949 10.6886 4.17949C10.6278 4.17949 10.571 4.19389 10.5182 4.22269C10.467 4.25149 10.4254 4.29229 10.3934 4.34509C10.363 4.39789 10.3478 4.46189 10.3478 4.53709C10.3478 4.61229 10.363 4.67709 10.3934 4.73149C10.4254 4.78429 10.467 4.82509 10.5182 4.85389C10.571 4.88109 10.627 4.89469 10.6862 4.89469Z" fill="white"/>
</svg>
